<svg xmlns="http://www.w3.org/2000/svg" viewBox="0 0 1280 720" role="img" aria-label="AI agent as enterprise coworker cover">
  <defs>
    <linearGradient id="bg" x1="0" y1="0" x2="1" y2="1"><stop offset="0" stop-color="#07111f"/><stop offset="0.48" stop-color="#123b75"/><stop offset="1" stop-color="#6d28d9"/></linearGradient>
    <radialGradient id="glow" cx="62%" cy="38%" r="48%"><stop offset="0" stop-color="#7dd3fc" stop-opacity="0.55"/><stop offset="1" stop-color="#7dd3fc" stop-opacity="0"/></radialGradient>
    <filter id="blur"><feGaussianBlur stdDeviation="20"/></filter>
  </defs>
  <rect width="1280" height="720" fill="url(#bg)"/>
  <rect width="1280" height="720" fill="url(#glow)"/>
  <g opacity="0.18" stroke="#dbeafe" stroke-width="1">
    <path d="M0 120h1280M0 240h1280M0 360h1280M0 480h1280M0 600h1280M160 0v720M320 0v720M480 0v720M640 0v720M800 0v720M960 0v720M1120 0v720"/>
  </g>
  <g transform="translate(640 360)">
    <circle r="156" fill="none" stroke="#e0f2fe" stroke-opacity="0.35" stroke-width="2"/>
    <circle r="88" fill="#0f172a" fill-opacity="0.55" stroke="#7dd3fc" stroke-width="3"/>
    <circle r="18" fill="#7dd3fc"/>
    <g fill="#e0f2fe" opacity="0.88">
      <circle cx="-250" cy="-130" r="16"/><circle cx="250" cy="-110" r="16"/><circle cx="-270" cy="135" r="16"/><circle cx="270" cy="135" r="16"/><circle cx="0" cy="-230" r="16"/><circle cx="0" cy="230" r="16"/>
    </g>
    <g stroke="#7dd3fc" stroke-width="3" opacity="0.55"><path d="M-234-122L-76-40M234-104L76-38M-254 130L-72 40M254 130L72 40M0-214V-90M0 214V90"/></g>
  </g>
  <g transform="translate(146 500)" opacity="0.92"><rect width="310" height="92" rx="24" fill="#020617" fill-opacity="0.55" stroke="#93c5fd" stroke-opacity="0.32"/><circle cx="54" cy="46" r="18" fill="#86efac"/><rect x="92" y="30" width="166" height="10" rx="5" fill="#e2e8f0" opacity="0.85"/><rect x="92" y="52" width="120" height="8" rx="4" fill="#94a3b8"/></g>
  <text x="72" y="104" fill="#eff6ff" font-family="Pretendard, Arial, sans-serif" font-size="34" font-weight="800">Agentic Workflows</text>
</svg>
