<svg xmlns="http://www.w3.org/2000/svg" viewBox="0 0 1280 720" role="img" aria-label="AI understanding approval line cover">
  <defs><linearGradient id="bg" x1="0" y1="0" x2="1" y2="1"><stop offset="0" stop-color="#111827"/><stop offset="0.45" stop-color="#312e81"/><stop offset="1" stop-color="#0e7490"/></linearGradient><radialGradient id="r" cx="50%" cy="45%" r="55%"><stop offset="0" stop-color="#f0f9ff" stop-opacity="0.16"/><stop offset="1" stop-color="#000" stop-opacity="0"/></radialGradient></defs>
  <rect width="1280" height="720" fill="url(#bg)"/><rect width="1280" height="720" fill="url(#r)"/>
  <g transform="translate(130 170)">
    <g fill="#020617" fill-opacity="0.62" stroke="#93c5fd" stroke-opacity="0.42" stroke-width="2">
      <rect x="0" y="0" width="250" height="105" rx="22"/><rect x="365" y="0" width="250" height="105" rx="22"/><rect x="730" y="0" width="250" height="105" rx="22"/>
      <rect x="182" y="255" width="250" height="105" rx="22"/><rect x="548" y="255" width="250" height="105" rx="22"/>
    </g>
    <g stroke="#7dd3fc" stroke-width="4" fill="none" opacity="0.64"><path d="M250 52h115M615 52h115M125 105l180 150M855 105L673 255M432 307h116"/></g>
    <g fill="#e0f2fe" font-family="Pretendard, Arial, sans-serif" font-weight="850"><text x="72" y="62" font-size="26">작성</text><text x="438" y="62" font-size="26">검토</text><text x="803" y="62" font-size="26">승인</text><text x="232" y="318" font-size="26">수정</text><text x="610" y="318" font-size="26">발송</text></g>
  </g>
  <g transform="translate(550 312)"><circle r="76" fill="#020617" fill-opacity="0.72" stroke="#a78bfa" stroke-width="3"/><path d="M-30 0h60M0-30v60" stroke="#7dd3fc" stroke-width="8" stroke-linecap="round"/><circle r="116" fill="none" stroke="#a78bfa" stroke-opacity="0.25" stroke-width="2"/></g>
  <text x="72" y="104" fill="#f8fafc" font-family="Pretendard, Arial, sans-serif" font-size="34" font-weight="900">Approval-aware AI</text>
</svg>
