<svg xmlns="http://www.w3.org/2000/svg" viewBox="0 0 1280 720" role="img" aria-label="AX as authority redesign cover">
  <defs><linearGradient id="bg" x1="0" y1="0" x2="1" y2="1"><stop offset="0" stop-color="#0b1020"/><stop offset="0.52" stop-color="#1e3a8a"/><stop offset="1" stop-color="#0f766e"/></linearGradient><filter id="shadow"><feDropShadow dx="0" dy="18" stdDeviation="20" flood-color="#000" flood-opacity="0.35"/></filter></defs>
  <rect width="1280" height="720" fill="url(#bg)"/>
  <g opacity="0.2" stroke="#cffafe"><path d="M80 120h1120M80 240h1120M80 360h1120M80 480h1120M80 600h1120"/><path d="M200 70v580M420 70v580M640 70v580M860 70v580M1080 70v580"/></g>
  <g filter="url(#shadow)">
    <rect x="170" y="145" width="260" height="130" rx="26" fill="#020617" fill-opacity="0.65" stroke="#7dd3fc" stroke-opacity="0.42"/>
    <rect x="510" y="145" width="260" height="130" rx="26" fill="#020617" fill-opacity="0.65" stroke="#a7f3d0" stroke-opacity="0.42"/>
    <rect x="850" y="145" width="260" height="130" rx="26" fill="#020617" fill-opacity="0.65" stroke="#c4b5fd" stroke-opacity="0.42"/>
    <rect x="340" y="420" width="260" height="130" rx="26" fill="#020617" fill-opacity="0.65" stroke="#fbbf24" stroke-opacity="0.42"/>
    <rect x="680" y="420" width="260" height="130" rx="26" fill="#020617" fill-opacity="0.65" stroke="#7dd3fc" stroke-opacity="0.42"/>
  </g>
  <g stroke="#e0f2fe" stroke-width="4" opacity="0.55" fill="none"><path d="M430 210h80M770 210h80M300 275l140 145M980 275L820 420M600 485h80" marker-end="url(#arrow)"/></g>
  <defs><marker id="arrow" markerWidth="12" markerHeight="12" refX="9" refY="3" orient="auto" markerUnits="strokeWidth"><path d="M0,0 L0,6 L9,3 z" fill="#e0f2fe"/></marker></defs>
  <g font-family="Pretendard, Arial, sans-serif" fill="#f8fafc" font-weight="800"><text x="222" y="218" font-size="28">권한</text><text x="562" y="218" font-size="28">데이터</text><text x="902" y="218" font-size="28">승인</text><text x="392" y="493" font-size="28">자동화</text><text x="735" y="493" font-size="28">감사로그</text></g>
  <text x="72" y="100" fill="#ecfeff" font-family="Pretendard, Arial, sans-serif" font-size="34" font-weight="900">AX = Authority Redesign</text>
</svg>
